<svg style={{"fill-rule": "nonzero", "clip-rule": "evenodd", "stroke-linecap": "round", "stroke-linejoin": "round"}} version="1.1" viewBox="0 0 1024 1024" width="100%" xmlns="http://www.w3.org/1999/xlink">
    <path d="M395.333 724.917C395.333 692.7 408.392 663.533 429.504 642.421C450.617 621.308 479.783 608.25 512 608.25C544.217 608.25 573.383 621.308 594.496 642.421C615.608 663.533 628.667 692.7 628.667 724.917C628.667 757.133 615.608 786.3 594.496 807.412C573.383 828.525 544.217 958.25 512 958.25C479.783 958.25 450.617 828.525 429.504 807.412C408.392 786.3 395.333 757.133 395.333 724.917Z" fill="#4474ab" fill-rule="nonzero" opacity="1" stroke="none"/>
    <path d="M395.333 310.75C395.333 246.317 447.567 194.083 512 194.083C576.433 194.083 628.667 246.317 628.667 310.75C628.667 375.183 576.433 427.417 512 427.417C447.567 427.417 395.333 375.183 395.333 310.75Z" fill="#4474ab" fill-rule="nonzero" opacity="1" stroke="none"/>
    <path d="M162 649.083C162 649.083 278.667 65.75 512 65.75C745.333 65.75 862 649.083 862 649.083" fill="none" opacity="1" stroke="#4474ab" stroke-linecap="butt" stroke-linejoin="miter" stroke-width="70"/>
</svg>